<svg width="25" height="25" viewBox="0 0 25 25" fill="none" xmlns="http://www.w3.org/2000/svg">
<g clip-path="url(#clip0_115_333)">
<path d="M24.925 7.35C24.9 6.3125 24.7125 5.2875 24.35 4.3125C24.0375 3.475 23.5375 2.725 22.9 2.1C22.275 1.4625 21.525 0.9625 20.6875 0.65C19.7125 0.2875 18.6875 0.1 17.65 0.075C16.325 0 15.9 0 12.5 0C9.1 0 8.675 0 7.35 0.075C6.3125 0.1 5.2875 0.2875 4.3125 0.65C3.475 0.9625 2.725 1.4625 2.1 2.1C1.4625 2.725 0.9625 3.475 0.6625 4.3125C0.3 5.2875 0.1 6.3125 0.075 7.35C0 8.675 0 9.1 0 12.5C0 15.9 0 16.325 0.075 17.65C0.1 18.6875 0.3 19.7125 0.6625 20.6875C0.9625 21.525 1.4625 22.275 2.1 22.9C2.725 23.5375 3.475 24.0375 4.3125 24.35C5.2875 24.7125 6.3125 24.9 7.35 24.925C8.675 25 9.1 25 12.5 25C15.9 25 16.325 25 17.65 24.925C18.6875 24.9 19.7125 24.7125 20.6875 24.35C22.3625 23.6875 23.6875 22.3625 24.35 20.6875C24.7125 19.7125 24.9 18.6875 24.925 17.65C24.925 16.325 25 15.9 25 12.5C25 9.1 25 8.675 24.925 7.35ZM22.675 17.5C22.675 18.2875 22.525 19.075 22.25 19.825C21.825 20.9125 20.9625 21.775 19.875 22.2C19.125 22.475 18.3375 22.6125 17.55 22.625C16.3 22.6875 15.8375 22.7 12.55 22.7C9.2625 22.7 8.8 22.7 7.55 22.625C6.725 22.6375 5.9 22.5125 5.125 22.25C4.0375 21.825 3.175 20.9625 2.75 19.875C2.475 19.1125 2.325 18.3125 2.325 17.5C2.325 16.25 2.25 15.7875 2.25 12.5C2.25 9.2125 2.25 8.75 2.325 7.5C2.325 6.6875 2.475 5.8875 2.75 5.125C3.175 4.0375 4.0375 3.175 5.125 2.75C5.8875 2.475 6.6875 2.325 7.5 2.325C8.75 2.325 9.2125 2.25 12.5 2.25C15.7875 2.25 16.25 2.25 17.5 2.325C18.2875 2.325 19.075 2.475 19.825 2.75C20.9125 3.175 21.775 4.0375 22.2 5.125C22.5 5.8875 22.65 6.6875 22.675 7.5C22.7375 8.75 22.75 9.2125 22.75 12.5C22.75 15.7875 22.75 16.25 22.675 17.5Z" fill="white"/>
<path d="M12.5 6.0752C8.94995 6.0752 6.07495 8.9502 6.07495 12.5002C6.07495 16.0502 8.94995 18.9252 12.5 18.9252C16.05 18.9252 18.925 16.0502 18.925 12.5002C18.925 8.9502 16.05 6.0752 12.5 6.0752ZM12.5 16.6627C10.2 16.6627 8.33745 14.8002 8.33745 12.5002C8.33745 10.2002 10.2 8.3377 12.5 8.3377C14.8 8.3377 16.6625 10.2002 16.6625 12.5002C16.6625 14.8002 14.8 16.6627 12.5 16.6627Z" fill="white"/>
<path d="M19.175 4.3252C18.35 4.3252 17.675 5.0002 17.675 5.8252C17.675 6.6502 18.35 7.3252 19.175 7.3252C20 7.3252 20.675 6.6502 20.675 5.8252C20.675 5.0002 20 4.3252 19.175 4.3252Z" fill="white"/>
</g>
<defs>
<clipPath id="clip0_115_333">
<rect width="25" height="25" fill="white"/>
</clipPath>
</defs>
</svg>
