<svg width="144" height="144" viewBox="0 0 144 144" fill="none" xmlns="http://www.w3.org/2000/svg">
<path d="M120.22 143.43C107.46 143.43 97.08 133.05 97.08 120.29C97.08 107.53 107.46 97.1499 120.22 97.1499C124.28 97.1499 128.28 98.2299 131.79 100.27L133.29 101.15V34.7999H46.79V120.43C46.7 133.13 36.32 143.44 23.65 143.44C10.98 143.44 0.51001 133.06 0.51001 120.3C0.51001 107.54 10.89 97.16 23.65 97.16C27.71 97.16 31.71 98.2399 35.22 100.28L36.72 101.15V5.59995C36.72 2.53995 38.7 0.569946 41.76 0.569946H138.33C141.39 0.569946 143.37 2.54995 143.37 5.59995V120.41C143.28 133.11 132.9 143.42 120.23 143.42L120.22 143.43ZM120.22 107.22C113.01 107.22 107.15 113.08 107.15 120.29C107.15 127.5 113.01 133.36 120.22 133.36C127.43 133.36 133.29 127.5 133.29 120.29C133.29 113.08 127.43 107.22 120.22 107.22ZM23.65 107.22C16.44 107.22 10.58 113.08 10.58 120.29C10.58 127.5 16.44 133.36 23.65 133.36C30.86 133.36 36.72 127.5 36.72 120.29C36.72 113.08 30.86 107.22 23.65 107.22ZM46.79 24.7199H133.29V10.6499H46.79V24.7199Z" fill="white"/>
</svg>
