<svg width="25" height="25" viewBox="0 0 25 25" fill="none" xmlns="http://www.w3.org/2000/svg">
<g clip-path="url(#clip0_115_337)">
<path d="M21.7836 24.9652C10.288 23.8621 1.13795 14.712 0.0464468 3.22805L0 2.78681L2.78681 0H8.44171L11.1821 6.83929L9.02229 10.1254C10.4621 12.5174 12.4826 14.5262 14.863 15.9777L18.1491 13.8179L24.9884 16.5583V22.2132L22.2016 25L21.7603 24.9536L21.7836 24.9652ZM1.93915 3.48351C3.12355 13.6902 11.3214 21.8881 21.5281 23.0725L23.1537 21.4468V17.8124L18.3813 15.908L14.9443 18.1607L14.4566 17.882C11.3911 16.1519 8.85973 13.6205 7.1412 10.555L6.86252 10.0673L9.11519 6.63028L7.21087 1.85787H3.57641L1.95077 3.48351H1.93915Z" fill="white"/>
</g>
<defs>
<clipPath id="clip0_115_337">
<rect width="25" height="25" fill="white"/>
</clipPath>
</defs>
</svg>
