<svg width="137" height="146" viewBox="0 0 137 146" fill="none" xmlns="http://www.w3.org/2000/svg">
<path d="M16.04 7.51996L15.62 11.14L13.06 32.71C12.99 32.81 13.08 32.88 13.01 32.98L1.14003 134.08L0.880029 136.46C0.460029 139.47 1.76003 142.41 4.19003 144.22C6.63003 146.03 9.81003 146.43 12.58 145.16L129.77 94.65L131.32 93.99L131.73 93.84C135.73 92.12 137.75 87.57 136.45 83.42C132.51 71.41 121.5 47.93 92.15 26.11L91.95 25.96C62.7 4.20996 37.21 0.409959 24.57 0.0999592C20.29 -0.0500408 16.51 3.19996 16.02 7.51996H16.04ZM15.26 87.19L18.68 57.93C24.43 55.09 31.5 55.35 37.06 59.48C44.86 65.28 46.49 76.33 40.69 84.13C34.89 91.93 23.84 93.56 16.04 87.76L15.26 87.18V87.19ZM32.62 127.34C29.96 123.39 29.87 118.03 32.84 114.04C36.61 108.97 43.92 107.89 48.99 111.66C51.33 113.4 52.82 115.87 53.37 118.4L32.62 127.34ZM91.36 102.13C96.41 94.53 94.74 84.35 87.32 78.84C79.9 73.33 69 74.76 63.35 82.37C57.69 89.98 59.27 100.69 66.88 106.34C69.12 108.01 71.7 109.02 74.28 109.42L61.3 115.06C60.09 110.98 57.57 107.44 54.16 104.91C45.29 98.31 32.7 100.16 26.11 109.04C21.33 115.48 20.92 123.96 24.79 130.77L9.36003 137.47L9.45003 136.93L14.19 96.54C25.42 102.62 39.67 99.74 47.5 89.21C56.05 77.7 53.65 61.38 42.15 52.83C35.71 48.05 27.42 46.57 19.82 48.65L21.44 34.26C21.61 34.23 33.47 33.36 50.92 41.04C50.77 41.24 50.7 41.33 50.65 41.6C46.82 50.41 49.54 60.61 57.24 66.34C65.43 72.43 76.7 71.73 83.96 64.4L84.18 64.11C101.75 81.41 104.83 96.42 104.83 96.42L91.34 102.14L91.36 102.13ZM84.03 97.74C81.2 101.54 75.69 102.44 71.79 99.54C67.89 96.64 67.09 91.2 69.99 87.3C72.89 83.4 78.33 82.6 82.23 85.5C86.13 88.4 86.93 93.84 84.03 97.74ZM58.51 44.7C62.85 47.01 67.43 49.81 72.11 53.29C72.62 53.82 73.11 54.18 73.7 54.62L74.77 55.42C75.35 55.85 76.04 56.36 76.55 56.9L77.33 57.48C77.62 57.7 77.82 57.84 78.04 58.16C73.88 62.33 67.27 62.87 62.39 59.25C57.81 55.84 56.4 49.8 58.51 44.71V44.7ZM87.06 32.77L87.25 32.91C115.24 53.72 125.22 76.13 128.59 86.06C127.94 86.33 127.28 86.6 126.72 86.94L112.92 92.88C112.2 90.38 110.48 85.16 106.64 78.52C101.06 68.92 93.49 59.96 83.78 51.83L82.9 51.18C82.32 50.75 81.8 50.21 81.32 49.85L77.13 46.73C64.45 37.31 51.35 30.9 38.22 27.79C30.75 26.02 25.43 25.85 22.73 25.81L24.33 12.46L24.75 8.83996C34.91 8.81996 59.18 12.03 87.07 32.76L87.06 32.77Z" fill="white"/>
</svg>
