<svg width="21" height="25" viewBox="0 0 21 25" fill="none" xmlns="http://www.w3.org/2000/svg">
<g clip-path="url(#clip0_115_347)">
<path d="M10.0021 24.1604C9.61311 23.9044 0.511963 17.7414 0.511963 10.3397C0.511963 4.92409 4.92433 0.511719 10.34 0.511719C15.7556 0.511719 20.168 4.92409 20.168 10.3397C20.168 17.7414 11.0668 23.9044 10.6778 24.1604L10.34 24.3856L10.0021 24.1604Z" stroke="white" stroke-miterlimit="10"/>
<path d="M10.1659 23.9044C9.78715 23.6485 0.819092 17.5879 0.819092 10.3397C0.819092 5.08789 5.08813 0.818848 10.34 0.818848C15.5918 0.818848 19.8609 5.08789 19.8609 10.3397C19.8609 17.5879 10.8928 23.6485 10.514 23.9044L10.34 24.017L10.1659 23.9044Z" stroke="white" stroke-miterlimit="10"/>
<path d="M10.1659 23.9044C9.78715 23.6485 0.819092 17.5879 0.819092 10.3397C0.819092 5.08789 5.08813 0.818848 10.34 0.818848C15.5918 0.818848 19.8609 5.08789 19.8609 10.3397C19.8609 17.5879 10.8928 23.6485 10.514 23.9044L10.34 24.017L10.1659 23.9044Z" stroke="white" stroke-miterlimit="10"/>
<path d="M19.5537 10.3397C19.5537 17.506 10.34 23.6485 10.34 23.6485C10.34 23.6485 1.12622 17.506 1.12622 10.3397C1.12622 5.25169 5.25194 1.12598 10.34 1.12598C15.428 1.12598 19.5537 5.25169 19.5537 10.3397Z" stroke="white" stroke-miterlimit="10"/>
<path d="M10.34 14.0253C12.3755 14.0253 14.0255 12.3752 14.0255 10.3398C14.0255 8.30435 12.3755 6.6543 10.34 6.6543C8.3046 6.6543 6.65454 8.30435 6.65454 10.3398C6.65454 12.3752 8.3046 14.0253 10.34 14.0253Z" stroke="white" stroke-miterlimit="10"/>
<path d="M10.34 13.7182C12.2059 13.7182 13.7184 12.2056 13.7184 10.3398C13.7184 8.47398 12.2059 6.96143 10.34 6.96143C8.47422 6.96143 6.96167 8.47398 6.96167 10.3398C6.96167 12.2056 8.47422 13.7182 10.34 13.7182Z" stroke="white" stroke-miterlimit="10"/>
<path d="M10.34 13.7182C12.2059 13.7182 13.7184 12.2056 13.7184 10.3398C13.7184 8.47398 12.2059 6.96143 10.34 6.96143C8.47422 6.96143 6.96167 8.47398 6.96167 10.3398C6.96167 12.2056 8.47422 13.7182 10.34 13.7182Z" stroke="white" stroke-miterlimit="10"/>
<path d="M10.3401 13.4111C12.0363 13.4111 13.4113 12.036 13.4113 10.3398C13.4113 8.6436 12.0363 7.26855 10.3401 7.26855C8.64385 7.26855 7.2688 8.6436 7.2688 10.3398C7.2688 12.036 8.64385 13.4111 10.3401 13.4111Z" stroke="white" stroke-miterlimit="10"/>
</g>
<defs>
<clipPath id="clip0_115_347">
<rect width="20.6798" height="25" fill="white"/>
</clipPath>
</defs>
</svg>
